<?xml version="1.0" encoding="UTF-8"?>
<!-- Generator: visioncortex VTracer 0.6.4 -->
<svg version="1.1" xmlns="http://www.w3.org/2000/svg" width="1059" height="1059">
<path d="M0 0 C0.67 -0 1.33 -0.01 2.02 -0.01 C5.55 -0.02 9.09 -0.03 12.63 -0.04 C15.48 -0.04 18.32 -0.06 21.17 -0.08 C41.84 -0.24 62.09 0.82 82.64 3.2 C83.53 3.31 84.41 3.41 85.33 3.51 C89.86 4.05 94.38 4.68 98.89 5.39 C99.54 5.49 100.19 5.59 100.86 5.7 C127.23 9.8 153.26 15.95 178.64 24.2 C179.82 24.59 181 24.97 182.22 25.37 C246.75 46.57 306.71 79.3 358.64 123.2 C359.15 123.63 359.66 124.06 360.18 124.5 C373.44 135.59 385.95 147.44 398.2 159.64 C398.94 160.37 399.67 161.11 400.43 161.86 C404.49 165.93 408.36 170.09 412.11 174.44 C413.99 176.61 415.94 178.72 417.89 180.83 C422.93 186.42 427.53 192.31 432.13 198.27 C433.65 200.21 435.19 202.13 436.75 204.05 C444.34 213.48 451.24 223.32 457.95 233.39 C458.57 234.32 458.57 234.32 459.21 235.28 C467.18 247.24 474.71 259.47 481.64 272.08 C482.05 272.83 482.47 273.59 482.89 274.36 C483.74 275.9 484.58 277.45 485.43 278.99 C486.56 281.06 487.7 283.12 488.85 285.18 C525.77 352.31 547.58 434.79 547.84 511.57 C547.84 512.23 547.85 512.9 547.85 513.58 C547.86 517.12 547.87 520.66 547.88 524.2 C547.88 527.04 547.89 529.89 547.92 532.73 C548.08 553.41 547.02 573.66 544.64 594.2 C544.48 595.54 544.48 595.54 544.33 596.9 C543.79 601.43 543.16 605.94 542.45 610.45 C542.35 611.11 542.25 611.76 542.14 612.43 C538.04 638.8 531.89 664.83 523.64 690.2 C523.25 691.38 522.87 692.57 522.47 693.78 C501.27 758.32 468.54 818.27 424.64 870.2 C424.21 870.71 423.78 871.22 423.34 871.75 C412.25 885.01 400.4 897.51 388.2 909.77 C387.47 910.5 386.73 911.24 385.98 912 C381.91 916.05 377.75 919.93 373.4 923.68 C371.23 925.56 369.12 927.5 367.01 929.45 C361.42 934.49 355.53 939.09 349.57 943.69 C347.63 945.21 345.71 946.76 343.79 948.31 C334.36 955.91 324.52 962.8 314.45 969.52 C313.51 970.14 313.51 970.14 312.56 970.78 C300.6 978.75 288.37 986.28 275.76 993.2 C275.01 993.62 274.25 994.03 273.48 994.46 C271.94 995.31 270.39 996.15 268.85 996.99 C266.78 998.12 264.72 999.27 262.66 1000.41 C195.53 1037.33 113.05 1059.15 36.27 1059.41 C35.61 1059.41 34.94 1059.41 34.26 1059.41 C30.72 1059.43 27.18 1059.44 23.64 1059.44 C20.8 1059.45 17.95 1059.46 15.11 1059.48 C-5.57 1059.65 -25.82 1058.58 -46.36 1056.2 C-47.7 1056.05 -47.7 1056.05 -49.06 1055.89 C-53.59 1055.36 -58.1 1054.72 -62.61 1054.02 C-63.59 1053.86 -63.59 1053.86 -64.59 1053.71 C-90.96 1049.61 -116.99 1043.46 -142.36 1035.2 C-143.54 1034.82 -144.73 1034.43 -145.94 1034.04 C-210.48 1012.84 -270.43 980.11 -322.36 936.2 C-322.87 935.78 -323.38 935.35 -323.91 934.91 C-337.17 923.81 -349.67 911.96 -361.93 899.77 C-362.66 899.03 -363.4 898.3 -364.16 897.54 C-368.21 893.48 -372.09 889.32 -375.84 884.97 C-377.72 882.79 -379.66 880.69 -381.61 878.58 C-386.66 872.98 -391.25 867.09 -395.85 861.14 C-397.37 859.19 -398.92 857.27 -400.47 855.36 C-408.07 845.92 -414.96 836.09 -421.68 826.02 C-422.09 825.39 -422.51 824.77 -422.94 824.13 C-430.91 812.16 -438.44 799.93 -445.36 787.33 C-445.78 786.57 -446.19 785.82 -446.62 785.04 C-447.47 783.5 -448.31 781.96 -449.15 780.41 C-450.28 778.35 -451.43 776.29 -452.57 774.23 C-489.49 707.1 -511.31 624.62 -511.57 547.84 C-511.57 547.17 -511.57 546.51 -511.57 545.82 C-511.59 542.29 -511.6 538.75 -511.6 535.21 C-511.61 532.36 -511.62 529.52 -511.64 526.67 C-511.81 506 -510.74 485.75 -508.36 465.2 C-508.26 464.31 -508.16 463.43 -508.05 462.51 C-507.52 457.98 -506.88 453.46 -506.18 448.95 C-506.08 448.3 -505.97 447.65 -505.87 446.98 C-501.77 420.61 -495.62 394.58 -487.36 369.2 C-486.98 368.02 -486.6 366.84 -486.2 365.62 C-465 301.09 -432.27 241.13 -388.36 189.2 C-387.94 188.69 -387.51 188.18 -387.07 187.66 C-375.97 174.4 -364.12 161.89 -351.93 149.64 C-351.19 148.9 -350.46 148.17 -349.7 147.41 C-345.64 143.35 -341.48 139.48 -337.13 135.73 C-334.95 133.85 -332.85 131.9 -330.74 129.95 C-325.14 124.91 -319.25 120.31 -313.3 115.71 C-311.35 114.19 -309.43 112.65 -307.52 111.09 C-298.08 103.5 -288.25 96.6 -278.18 89.89 C-277.55 89.47 -276.93 89.06 -276.29 88.63 C-264.32 80.66 -252.09 73.13 -239.49 66.2 C-238.73 65.79 -237.98 65.37 -237.2 64.95 C-235.66 64.1 -234.12 63.26 -232.57 62.41 C-230.51 61.28 -228.45 60.14 -226.39 58.99 C-159.26 22.07 -76.78 0.26 0 0 Z " fill="#2446FF" transform="translate(511.36328125,-0.203125)"/>
<path d="M0 0 C63.36 0 126.72 0 192 0 C216.02 59.69 216.02 59.69 222.74 76.42 C223.11 77.34 223.11 77.34 223.48 78.28 C234.55 105.83 245.53 133.41 256.5 161 C270.76 196.86 285.09 232.7 299.5 268.5 C316.2 309.99 332.79 351.53 349.32 393.09 C349.74 394.15 350.16 395.21 350.59 396.3 C352.66 401.48 354.72 406.67 356.77 411.85 C360.91 422.25 365.06 432.64 369.24 443.02 C370.09 445.13 370.94 447.24 371.79 449.35 C373.39 453.33 375 457.31 376.62 461.29 C377.33 463.07 378.05 464.85 378.76 466.63 C379.09 467.43 379.42 468.24 379.76 469.08 C382 474.66 382 474.66 382 478 C382.66 478 383.32 478 384 478 C384 446.98 384 415.96 384 384 C415.35 384 446.7 384 479 384 C479 415.35 479 446.7 479 479 C383.96 479 288.92 479 191 479 C177.26 445.79 177.26 445.79 171.08 430.19 C169.87 427.14 168.66 424.1 167.45 421.05 C165.69 416.63 163.94 412.21 162.18 407.78 C157.41 395.76 152.62 383.73 147.84 371.71 C147.59 371.09 147.35 370.48 147.1 369.84 C136.3 342.7 125.41 315.6 114.5 288.5 C99.2 250.48 83.99 212.42 68.85 174.33 C58.61 148.56 48.33 122.81 37.98 97.09 C37.48 95.85 36.98 94.6 36.48 93.36 C31.68 81.43 26.88 69.5 22.07 57.57 C20.32 53.22 18.56 48.88 16.81 44.53 C16.01 42.53 15.2 40.53 14.4 38.54 C0 2.93 0 2.93 0 0 Z " fill="#FEFEFF" transform="translate(185,320)"/>
<path d="M0 0 C31.35 0 62.7 0 95 0 C95 31.35 95 62.7 95 95 C63.65 95 32.3 95 0 95 C0 63.65 0 32.3 0 0 Z " fill="#FFFFFF" transform="translate(665,608)"/>
<path d="M0 0 C31.35 0 62.7 0 95 0 C95 31.35 95 62.7 95 95 C63.65 95 32.3 95 0 95 C0 63.65 0 32.3 0 0 Z " fill="#B8F53D" transform="translate(761,512)"/>
<path d="M0 0 C32.01 0 64.02 0 97 0 C97 32.01 97 64.02 97 97 C65.32 97 33.64 97 1 97 C1 128.68 1 160.36 1 193 C-30.68 193 -62.36 193 -95 193 C-95 224.68 -95 256.36 -95 289 C-190.37 289 -285.74 289 -384 289 C-384 288.67 -384 288.34 -384 288 C-288.96 288 -193.92 288 -96 288 C-96 256.65 -96 225.3 -96 193 C-127.35 193 -158.7 193 -191 193 C-191 224.02 -191 255.04 -191 287 C-191.66 287 -192.32 287 -193 287 C-192.5 239.98 -192.5 239.98 -192 192 C-160.32 192 -128.64 192 -96 192 C-96 160.32 -96 128.64 -96 96 C-64.32 96 -32.64 96 0 96 C0 64.32 0 32.64 0 0 Z M1 1 C1 32.35 1 63.7 1 96 C32.35 96 63.7 96 96 96 C96 64.65 96 33.3 96 1 C64.65 1 33.3 1 1 1 Z M-95 97 C-95 128.35 -95 159.7 -95 192 C-63.65 192 -32.3 192 0 192 C0 160.65 0 129.3 0 97 C-31.35 97 -62.7 97 -95 97 Z " fill="#86A0E3" transform="translate(760,511)"/>
</svg>
